<svg t="1715240196531" class="icon" viewBox="0 0 1024 1024" version="1.1" xmlns="http://www.w3.org/2000/svg" p-id="4164" width="16" height="16">
  <path d="M521.011 0C270.459 0 64.343 206.115 64.343 456.668c0 105.871 36.032 206.883 102.048 288.299a34.037 34.037 0 0 0 4.224 5.44L390.083 977.01c33.365 38.912 93.781 43.306 132.693 9.914 38.912-33.39 43.282-93.781 9.891-132.693a94.61 94.61 0 0 0-9.89-9.89l-12.288-10.496A143.693 143.693 0 0 1 437.299 757.76c-38.71-57.173-59.392-124.211-59.392-195.584V460.8h79.373v97.664c0 48.179 14.08 94.733 40.602 134.553a222.771 222.771 0 0 0 113.28 93.33l12.941 11.05c15.838 13.568 17.664 37.376 4.07 53.188-13.569 15.839-37.376 17.664-53.188 4.07l-206.157-176.59a342.272 342.272 0 0 1-77.824-218.087c0-189.542 154.267-343.808 343.808-343.808s343.808 154.266 343.808 343.808c0 189.54-154.267 343.808-343.808 343.808v91.136c239.36 0 434.944-195.583 434.944-434.944C955.955 206.139 749.836 0 499.288 0h21.725z" p-id="4165"></path>
  <path d="M520.475 292.571c-22.86 0-41.472 18.586-41.472 41.446v4.659c0 22.86 18.612 41.445 41.472 41.445 22.86 0 41.472-18.586 41.472-41.445v-4.659c0-22.86-18.611-41.446-41.472-41.446zM520.628 419.84c-19.584 0-35.456 15.872-35.456 35.456v214.707c0 19.584 15.872 35.456 35.456 35.456s35.456-15.872 35.456-35.456V455.296c0-19.584-15.872-35.456-35.456-35.456z" p-id="4166"></path>
</svg> 